<svg xmlns="http://www.w3.org/2000/svg" viewBox="0 0 1500 400" role="img" aria-labelledby="title desc">
<title id="title">DGM-ARC-002 Evidence to evaluation trace</title>
<desc id="desc">Trace from admitted evidence through concept discovery, UFO/OntoUML conceptualization, OWL/SHACL formalization, relational and RDF/KG realization, evaluation and claim disposition, with E9 pending.</desc>
<defs><marker id="a" markerWidth="10" markerHeight="10" refX="8" refY="3" orient="auto"><path d="M0,0 L0,6 L9,3 z"/></marker><style>.p{stroke-dasharray:6 6}text{font-family:sans-serif}</style></defs>
<g fill="none" stroke="currentColor">
<rect x="20" y="110" width="170" height="90" rx="8"/><rect x="225" y="110" width="170" height="90" rx="8"/><rect x="430" y="110" width="170" height="90" rx="8"/><rect x="635" y="110" width="170" height="90" rx="8"/><rect x="840" y="110" width="170" height="90" rx="8"/><rect x="1045" y="110" width="170" height="90" rx="8"/><rect x="1250" y="110" width="170" height="90" rx="8"/>
<line x1="190" y1="155" x2="225" y2="155" marker-end="url(#a)"/><line x1="395" y1="155" x2="430" y2="155" marker-end="url(#a)"/><line x1="600" y1="155" x2="635" y2="155" marker-end="url(#a)"/><line x1="805" y1="155" x2="840" y2="155" marker-end="url(#a)"/><line x1="1010" y1="155" x2="1045" y2="155" marker-end="url(#a)"/><line x1="1215" y1="155" x2="1250" y2="155" marker-end="url(#a)"/>
<line class="p" x1="1130" y1="200" x2="1130" y2="295"/>
</g>
<g font-size="14" text-anchor="middle">
<text x="105" y="140">Admitted evidence</text><text x="105" y="163">literature + data</text>
<text x="310" y="140">Concept / relation</text><text x="310" y="163">discovery</text>
<text x="515" y="140">UFO / OntoUML</text><text x="515" y="163">conceptualization</text>
<text x="720" y="140">OWL / SHACL</text><text x="720" y="163">formalization</text>
<text x="925" y="140">Relational +</text><text x="925" y="163">RDF / KG realization</text>
<text x="1130" y="140">Evaluation</text><text x="1130" y="163">E1–E13</text>
<text x="1335" y="135">Supported / bounded /</text><text x="1335" y="158">deferred claims</text>
<text x="1130" y="320">E9 real expert evidence pending</text>
</g></svg>