<svg xmlns="http://www.w3.org/2000/svg" viewBox="0 0 1130 1331" role="img" aria-labelledby="title desc" data-theme-safe="true" style="color:#24292f;background:#ffffff">
<title id="title">DGM-ONT-002 V2 ontology architecture — Core, X-INFRA and Extensions</title>
<desc id="desc">Show the 17-domain V2 ontology architecture across the three governed conceptual layers.</desc>
<rect id="diagram-background" x="0" y="0" width="100%" height="100%" fill="#ffffff" stroke="none" pointer-events="none" />
<defs><marker id="arr" markerWidth="10" markerHeight="10" refX="8" refY="3" orient="auto"><path d="M0,0 L0,6 L9,3 z" /></marker><marker id="inherit" markerWidth="12" markerHeight="12" refX="10" refY="5" orient="auto"><path d="M0,0 L0,10 L10,5 z" fill="white" stroke="currentColor" /></marker><style>text{font-family:sans-serif}.node{fill:white;stroke:currentColor}.note{fill:white;stroke:currentColor;stroke-dasharray:5 4}.prot{stroke-dasharray:6 5}.dtype{stroke-dasharray:4 3}.relator{stroke-width:2}.edge-label{font-size:10px}</style></defs>
<text x="182.5" y="34" text-anchor="middle" font-size="17" font-weight="bold">Core — 32 concepts</text>
<text x="532.5" y="34" text-anchor="middle" font-size="17" font-weight="bold">X-INFRA — 25 concepts</text>
<text x="882.5" y="34" text-anchor="middle" font-size="17" font-weight="bold">Extensions — 30 concepts</text>
<rect class="node" x="40" y="105" width="285" height="96" rx="5" />
<text x="182.5" y="129" text-anchor="middle" font-size="13" font-weight="bold">Ecosystem Organization</text>
<text x="182.5" y="187" text-anchor="middle" font-size="11">«module · Core · 8 concepts»</text>
<rect class="node" x="40" y="237" width="285" height="96" rx="5" />
<text x="182.5" y="261" text-anchor="middle" font-size="13" font-weight="bold">Facility Operations</text>
<text x="182.5" y="319" text-anchor="middle" font-size="11">«module · Core · 4 concepts»</text>
<rect class="node" x="40" y="369" width="285" height="96" rx="5" />
<text x="182.5" y="393" text-anchor="middle" font-size="13" font-weight="bold">Regulatory Governance</text>
<text x="182.5" y="451" text-anchor="middle" font-size="11">«module · Core · 3 concepts»</text>
<rect class="node" x="40" y="501" width="285" height="96" rx="5" />
<text x="182.5" y="525" text-anchor="middle" font-size="13" font-weight="bold">Pharmaceutical Product</text>
<text x="182.5" y="583" text-anchor="middle" font-size="11">«module · Core · 10 concepts»</text>
<rect class="node" x="40" y="633" width="285" height="96" rx="5" />
<text x="182.5" y="657" text-anchor="middle" font-size="13" font-weight="bold">Supply Operations</text>
<text x="182.5" y="715" text-anchor="middle" font-size="11">«module · Core · 4 concepts»</text>
<rect class="node" x="40" y="765" width="285" height="96" rx="5" />
<text x="182.5" y="789" text-anchor="middle" font-size="13" font-weight="bold">Ecosystem Observation</text>
<text x="182.5" y="847" text-anchor="middle" font-size="11">«module · Core · 3 concepts»</text>
<rect class="node" x="390" y="105" width="285" height="96" rx="5" />
<text x="532.5" y="129" text-anchor="middle" font-size="13" font-weight="bold">Spatiotemporal Context</text>
<text x="532.5" y="187" text-anchor="middle" font-size="11">«module · X-INFRA · 7 concepts»</text>
<rect class="node" x="390" y="237" width="285" height="96" rx="5" />
<text x="532.5" y="261" text-anchor="middle" font-size="13" font-weight="bold">Evidence Traceability</text>
<text x="532.5" y="319" text-anchor="middle" font-size="11">«module · X-INFRA · 13 concepts»</text>
<rect class="node" x="390" y="369" width="285" height="96" rx="5" />
<text x="532.5" y="393" text-anchor="middle" font-size="13" font-weight="bold">Entity Identity</text>
<text x="532.5" y="451" text-anchor="middle" font-size="11">«module · X-INFRA · 5 concepts»</text>
<rect class="node" x="740" y="105" width="285" height="96" rx="5" />
<text x="882.5" y="129" text-anchor="middle" font-size="13" font-weight="bold">Regulatory Policy</text>
<text x="882.5" y="187" text-anchor="middle" font-size="11">«module · Extension · 2 concepts»</text>
<rect class="node" x="740" y="237" width="285" height="96" rx="5" />
<text x="882.5" y="261" text-anchor="middle" font-size="13" font-weight="bold">Supply Resilience</text>
<text x="882.5" y="319" text-anchor="middle" font-size="11">«module · Extension · 11 concepts»</text>
<rect class="node" x="740" y="369" width="285" height="96" rx="5" />
<text x="882.5" y="393" text-anchor="middle" font-size="13" font-weight="bold">Market Access</text>
<text x="882.5" y="451" text-anchor="middle" font-size="11">«module · Extension · 3 concepts»</text>
<rect class="node" x="740" y="501" width="285" height="96" rx="5" />
<text x="882.5" y="525" text-anchor="middle" font-size="13" font-weight="bold">Risk Management</text>
<text x="882.5" y="583" text-anchor="middle" font-size="11">«module · Extension · 5 concepts»</text>
<rect class="node" x="740" y="633" width="285" height="96" rx="5" />
<text x="882.5" y="657" text-anchor="middle" font-size="13" font-weight="bold">Pharmacovigilance</text>
<text x="882.5" y="715" text-anchor="middle" font-size="11">«module · Extension · 3 concepts»</text>
<rect class="node" x="740" y="765" width="285" height="96" rx="5" />
<text x="882.5" y="789" text-anchor="middle" font-size="13" font-weight="bold">Business Architecture</text>
<text x="882.5" y="847" text-anchor="middle" font-size="11">«module · Extension · 4 concepts»</text>
<rect class="node" x="740" y="897" width="285" height="96" rx="5" />
<text x="882.5" y="921" text-anchor="middle" font-size="13" font-weight="bold">Digital Systems</text>
<text x="882.5" y="979" text-anchor="middle" font-size="11">«module · Extension · 1 concepts»</text>
<rect class="node" x="740" y="1029" width="285" height="96" rx="5" />
<text x="882.5" y="1053" text-anchor="middle" font-size="13" font-weight="bold">Clinical Care</text>
<text x="882.5" y="1111" text-anchor="middle" font-size="11">«module · Extension · 1 concepts»</text>
<text x="40" y="1245" font-size="11">Legend: stereotype text carries semantics; dashed boxes are notes/datatypes; thick borders mark Relators; hollow triangle = subClassOf.</text>
<text x="40" y="1267" font-size="11">Dashed protected lines mean only registered inequality. No cardinality, equivalence or extra endpoint is implied by layout.</text>
</svg>
